<svg
    id="visual"
    viewBox="0 0 900 200"
    width="900"
    height="200"
    xmlns="http://www.w3.org/2000/svg"
    xmlns:xlink="http://www.w3.org/1999/xlink"
    version="1.1"
><path
        d="M0 56L8.3 55C16.7 54 33.3 52 50 52.5C66.7 53 83.3 56 100 54.7C116.7 53.3 133.3 47.7 150 51C166.7 54.3 183.3 66.7 200 66.5C216.7 66.3 233.3 53.7 250 49.8C266.7 46 283.3 51 300 54C316.7 57 333.3 58 350 54.5C366.7 51 383.3 43 400 44.5C416.7 46 433.3 57 450 57.3C466.7 57.7 483.3 47.3 500 43.7C516.7 40 533.3 43 550 46C566.7 49 583.3 52 600 57.5C616.7 63 633.3 71 650 75.2C666.7 79.3 683.3 79.7 700 80.5C716.7 81.3 733.3 82.7 750 82.2C766.7 81.7 783.3 79.3 800 73.7C816.7 68 833.3 59 850 56.3C866.7 53.7 883.3 57.3 891.7 59.2L900 61L900 201L891.7 201C883.3 201 866.7 201 850 201C833.3 201 816.7 201 800 201C783.3 201 766.7 201 750 201C733.3 201 716.7 201 700 201C683.3 201 666.7 201 650 201C633.3 201 616.7 201 600 201C583.3 201 566.7 201 550 201C533.3 201 516.7 201 500 201C483.3 201 466.7 201 450 201C433.3 201 416.7 201 400 201C383.3 201 366.7 201 350 201C333.3 201 316.7 201 300 201C283.3 201 266.7 201 250 201C233.3 201 216.7 201 200 201C183.3 201 166.7 201 150 201C133.3 201 116.7 201 100 201C83.3 201 66.7 201 50 201C33.3 201 16.7 201 8.3 201L0 201Z"
        fill="#211f2010"
    /><path
        d="M0 60L8.3 65.8C16.7 71.7 33.3 83.3 50 87.3C66.7 91.3 83.3 87.7 100 86C116.7 84.3 133.3 84.7 150 83.2C166.7 81.7 183.3 78.3 200 80.8C216.7 83.3 233.3 91.7 250 97.3C266.7 103 283.3 106 300 107.5C316.7 109 333.3 109 350 101.2C366.7 93.3 383.3 77.7 400 75.2C416.7 72.7 433.3 83.3 450 81C466.7 78.7 483.3 63.3 500 64.2C516.7 65 533.3 82 550 83.7C566.7 85.3 583.3 71.7 600 69.7C616.7 67.7 633.3 77.3 650 77.7C666.7 78 683.3 69 700 64.2C716.7 59.3 733.3 58.7 750 60C766.7 61.3 783.3 64.7 800 69.3C816.7 74 833.3 80 850 80C866.7 80 883.3 74 891.7 71L900 68L900 201L891.7 201C883.3 201 866.7 201 850 201C833.3 201 816.7 201 800 201C783.3 201 766.7 201 750 201C733.3 201 716.7 201 700 201C683.3 201 666.7 201 650 201C633.3 201 616.7 201 600 201C583.3 201 566.7 201 550 201C533.3 201 516.7 201 500 201C483.3 201 466.7 201 450 201C433.3 201 416.7 201 400 201C383.3 201 366.7 201 350 201C333.3 201 316.7 201 300 201C283.3 201 266.7 201 250 201C233.3 201 216.7 201 200 201C183.3 201 166.7 201 150 201C133.3 201 116.7 201 100 201C83.3 201 66.7 201 50 201C33.3 201 16.7 201 8.3 201L0 201Z"
        fill="#211f2030"
    /><path
        d="M0 99L8.3 102.7C16.7 106.3 33.3 113.7 50 111.5C66.7 109.3 83.3 97.7 100 98.5C116.7 99.3 133.3 112.7 150 114.5C166.7 116.3 183.3 106.7 200 102.8C216.7 99 233.3 101 250 103.2C266.7 105.3 283.3 107.7 300 108.3C316.7 109 333.3 108 350 106.5C366.7 105 383.3 103 400 105.3C416.7 107.7 433.3 114.3 450 115.3C466.7 116.3 483.3 111.7 500 110.2C516.7 108.7 533.3 110.3 550 108.2C566.7 106 583.3 100 600 98.8C616.7 97.7 633.3 101.3 650 102.8C666.7 104.3 683.3 103.7 700 99C716.7 94.3 733.3 85.7 750 85.7C766.7 85.7 783.3 94.3 800 102.5C816.7 110.7 833.3 118.3 850 113.8C866.7 109.3 883.3 92.7 891.7 84.3L900 76L900 201L891.7 201C883.3 201 866.7 201 850 201C833.3 201 816.7 201 800 201C783.3 201 766.7 201 750 201C733.3 201 716.7 201 700 201C683.3 201 666.7 201 650 201C633.3 201 616.7 201 600 201C583.3 201 566.7 201 550 201C533.3 201 516.7 201 500 201C483.3 201 466.7 201 450 201C433.3 201 416.7 201 400 201C383.3 201 366.7 201 350 201C333.3 201 316.7 201 300 201C283.3 201 266.7 201 250 201C233.3 201 216.7 201 200 201C183.3 201 166.7 201 150 201C133.3 201 116.7 201 100 201C83.3 201 66.7 201 50 201C33.3 201 16.7 201 8.3 201L0 201Z"
        fill="#211f2050"
    /><path
        d="M0 122L8.3 126.2C16.7 130.3 33.3 138.7 50 138C66.7 137.3 83.3 127.7 100 121.8C116.7 116 133.3 114 150 113.7C166.7 113.3 183.3 114.7 200 116.3C216.7 118 233.3 120 250 121.3C266.7 122.7 283.3 123.3 300 124.8C316.7 126.3 333.3 128.7 350 125.2C366.7 121.7 383.3 112.3 400 110.7C416.7 109 433.3 115 450 115.2C466.7 115.3 483.3 109.7 500 109.7C516.7 109.7 533.3 115.3 550 121.2C566.7 127 583.3 133 600 133.7C616.7 134.3 633.3 129.7 650 130.3C666.7 131 683.3 137 700 136.2C716.7 135.3 733.3 127.7 750 120.8C766.7 114 783.3 108 800 108.2C816.7 108.3 833.3 114.7 850 114.8C866.7 115 883.3 109 891.7 106L900 103L900 201L891.7 201C883.3 201 866.7 201 850 201C833.3 201 816.7 201 800 201C783.3 201 766.7 201 750 201C733.3 201 716.7 201 700 201C683.3 201 666.7 201 650 201C633.3 201 616.7 201 600 201C583.3 201 566.7 201 550 201C533.3 201 516.7 201 500 201C483.3 201 466.7 201 450 201C433.3 201 416.7 201 400 201C383.3 201 366.7 201 350 201C333.3 201 316.7 201 300 201C283.3 201 266.7 201 250 201C233.3 201 216.7 201 200 201C183.3 201 166.7 201 150 201C133.3 201 116.7 201 100 201C83.3 201 66.7 201 50 201C33.3 201 16.7 201 8.3 201L0 201Z"
        fill="#211f2080"
    /><path
        d="M0 131L8.3 136.8C16.7 142.7 33.3 154.3 50 155.7C66.7 157 83.3 148 100 142.5C116.7 137 133.3 135 150 137C166.7 139 183.3 145 200 147.5C216.7 150 233.3 149 250 150.3C266.7 151.7 283.3 155.3 300 153.7C316.7 152 333.3 145 350 140.5C366.7 136 383.3 134 400 137.7C416.7 141.3 433.3 150.7 450 153.8C466.7 157 483.3 154 500 150C516.7 146 533.3 141 550 143.2C566.7 145.3 583.3 154.7 600 154.8C616.7 155 633.3 146 650 141.2C666.7 136.3 683.3 135.7 700 135.7C716.7 135.7 733.3 136.3 750 141.3C766.7 146.3 783.3 155.7 800 158.7C816.7 161.7 833.3 158.3 850 155.5C866.7 152.7 883.3 150.3 891.7 149.2L900 148L900 201L891.7 201C883.3 201 866.7 201 850 201C833.3 201 816.7 201 800 201C783.3 201 766.7 201 750 201C733.3 201 716.7 201 700 201C683.3 201 666.7 201 650 201C633.3 201 616.7 201 600 201C583.3 201 566.7 201 550 201C533.3 201 516.7 201 500 201C483.3 201 466.7 201 450 201C433.3 201 416.7 201 400 201C383.3 201 366.7 201 350 201C333.3 201 316.7 201 300 201C283.3 201 266.7 201 250 201C233.3 201 216.7 201 200 201C183.3 201 166.7 201 150 201C133.3 201 116.7 201 100 201C83.3 201 66.7 201 50 201C33.3 201 16.7 201 8.3 201L0 201Z"
        fill="#211f20a0"
    /><path
        d="M0 164L8.3 164.8C16.7 165.7 33.3 167.3 50 170C66.7 172.7 83.3 176.3 100 179.3C116.7 182.3 133.3 184.7 150 184.5C166.7 184.3 183.3 181.7 200 181.7C216.7 181.7 233.3 184.3 250 180.5C266.7 176.7 283.3 166.3 300 163.7C316.7 161 333.3 166 350 169C366.7 172 383.3 173 400 172.3C416.7 171.7 433.3 169.3 450 168.8C466.7 168.3 483.3 169.7 500 168.2C516.7 166.7 533.3 162.3 550 159.5C566.7 156.7 583.3 155.3 600 160C616.7 164.7 633.3 175.3 650 178.5C666.7 181.7 683.3 177.3 700 176.5C716.7 175.7 733.3 178.3 750 178.2C766.7 178 783.3 175 800 175.5C816.7 176 833.3 180 850 177.7C866.7 175.3 883.3 166.7 891.7 162.3L900 158L900 201L891.7 201C883.3 201 866.7 201 850 201C833.3 201 816.7 201 800 201C783.3 201 766.7 201 750 201C733.3 201 716.7 201 700 201C683.3 201 666.7 201 650 201C633.3 201 616.7 201 600 201C583.3 201 566.7 201 550 201C533.3 201 516.7 201 500 201C483.3 201 466.7 201 450 201C433.3 201 416.7 201 400 201C383.3 201 366.7 201 350 201C333.3 201 316.7 201 300 201C283.3 201 266.7 201 250 201C233.3 201 216.7 201 200 201C183.3 201 166.7 201 150 201C133.3 201 116.7 201 100 201C83.3 201 66.7 201 50 201C33.3 201 16.7 201 8.3 201L0 201Z"
        fill="#211f20ff"
    /></svg>
