<svg
    id="visual"
    viewBox="0 0 900 200"
    width="900"
    height="200"
    xmlns="http://www.w3.org/2000/svg"
    xmlns:xlink="http://www.w3.org/1999/xlink"
    version="1.1"
><path
        d="M0 48L11.5 54.5C23 61 46 74 69 74.2C92 74.3 115 61.7 138.2 59C161.3 56.3 184.7 63.7 207.8 68.5C231 73.3 254 75.7 277 71.8C300 68 323 58 346 60.3C369 62.7 392 77.3 415.2 77.5C438.3 77.7 461.7 63.3 484.8 60.7C508 58 531 67 554 66.7C577 66.3 600 56.7 623 49.8C646 43 669 39 692.2 46.3C715.3 53.7 738.7 72.3 761.8 77.3C785 82.3 808 73.7 831 74C854 74.3 877 83.7 888.5 88.3L900 93L900 201L888.5 201C877 201 854 201 831 201C808 201 785 201 761.8 201C738.7 201 715.3 201 692.2 201C669 201 646 201 623 201C600 201 577 201 554 201C531 201 508 201 484.8 201C461.7 201 438.3 201 415.2 201C392 201 369 201 346 201C323 201 300 201 277 201C254 201 231 201 207.8 201C184.7 201 161.3 201 138.2 201C115 201 92 201 69 201C46 201 23 201 11.5 201L0 201Z"
        fill="#a5bacb"
    /><path
        d="M0 77L11.5 73.5C23 70 46 63 69 64.7C92 66.3 115 76.7 138.2 79.2C161.3 81.7 184.7 76.3 207.8 74.2C231 72 254 73 277 70.8C300 68.7 323 63.3 346 68.3C369 73.3 392 88.7 415.2 93.2C438.3 97.7 461.7 91.3 484.8 89.3C508 87.3 531 89.7 554 86C577 82.3 600 72.7 623 73.3C646 74 669 85 692.2 86.3C715.3 87.7 738.7 79.3 761.8 77C785 74.7 808 78.3 831 85.3C854 92.3 877 102.7 888.5 107.8L900 113L900 201L888.5 201C877 201 854 201 831 201C808 201 785 201 761.8 201C738.7 201 715.3 201 692.2 201C669 201 646 201 623 201C600 201 577 201 554 201C531 201 508 201 484.8 201C461.7 201 438.3 201 415.2 201C392 201 369 201 346 201C323 201 300 201 277 201C254 201 231 201 207.8 201C184.7 201 161.3 201 138.2 201C115 201 92 201 69 201C46 201 23 201 11.5 201L0 201Z"
        fill="#93acc3"
    /><path
        d="M0 104L11.5 105.8C23 107.7 46 111.3 69 112.3C92 113.3 115 111.7 138.2 106.8C161.3 102 184.7 94 207.8 90.8C231 87.7 254 89.3 277 92.3C300 95.3 323 99.7 346 100C369 100.3 392 96.7 415.2 97.7C438.3 98.7 461.7 104.3 484.8 108.3C508 112.3 531 114.7 554 117.7C577 120.7 600 124.3 623 122.3C646 120.3 669 112.7 692.2 106.7C715.3 100.7 738.7 96.3 761.8 93.8C785 91.3 808 90.7 831 89.3C854 88 877 86 888.5 85L900 84L900 201L888.5 201C877 201 854 201 831 201C808 201 785 201 761.8 201C738.7 201 715.3 201 692.2 201C669 201 646 201 623 201C600 201 577 201 554 201C531 201 508 201 484.8 201C461.7 201 438.3 201 415.2 201C392 201 369 201 346 201C323 201 300 201 277 201C254 201 231 201 207.8 201C184.7 201 161.3 201 138.2 201C115 201 92 201 69 201C46 201 23 201 11.5 201L0 201Z"
        fill="#839dba"
    /><path
        d="M0 122L11.5 121.5C23 121 46 120 69 118.7C92 117.3 115 115.7 138.2 116C161.3 116.3 184.7 118.7 207.8 118.2C231 117.7 254 114.3 277 118C300 121.7 323 132.3 346 132C369 131.7 392 120.3 415.2 120.2C438.3 120 461.7 131 484.8 136.5C508 142 531 142 554 136.2C577 130.3 600 118.7 623 119.7C646 120.7 669 134.3 692.2 137.8C715.3 141.3 738.7 134.7 761.8 134C785 133.3 808 138.7 831 140.5C854 142.3 877 140.7 888.5 139.8L900 139L900 201L888.5 201C877 201 854 201 831 201C808 201 785 201 761.8 201C738.7 201 715.3 201 692.2 201C669 201 646 201 623 201C600 201 577 201 554 201C531 201 508 201 484.8 201C461.7 201 438.3 201 415.2 201C392 201 369 201 346 201C323 201 300 201 277 201C254 201 231 201 207.8 201C184.7 201 161.3 201 138.2 201C115 201 92 201 69 201C46 201 23 201 11.5 201L0 201Z"
        fill="#748fb2"
    /><path
        d="M0 154L11.5 155.5C23 157 46 160 69 158.7C92 157.3 115 151.7 138.2 151.2C161.3 150.7 184.7 155.3 207.8 155.7C231 156 254 152 277 147.7C300 143.3 323 138.7 346 137C369 135.3 392 136.7 415.2 137.2C438.3 137.7 461.7 137.3 484.8 140.2C508 143 531 149 554 149.7C577 150.3 600 145.7 623 145C646 144.3 669 147.7 692.2 151.2C715.3 154.7 738.7 158.3 761.8 160.2C785 162 808 162 831 160.2C854 158.3 877 154.7 888.5 152.8L900 151L900 201L888.5 201C877 201 854 201 831 201C808 201 785 201 761.8 201C738.7 201 715.3 201 692.2 201C669 201 646 201 623 201C600 201 577 201 554 201C531 201 508 201 484.8 201C461.7 201 438.3 201 415.2 201C392 201 369 201 346 201C323 201 300 201 277 201C254 201 231 201 207.8 201C184.7 201 161.3 201 138.2 201C115 201 92 201 69 201C46 201 23 201 11.5 201L0 201Z"
        fill="#6680a9"
    /><path
        d="M0 175L11.5 172C23 169 46 163 69 164.3C92 165.7 115 174.3 138.2 176.2C161.3 178 184.7 173 207.8 171.3C231 169.7 254 171.3 277 172.7C300 174 323 175 346 172.5C369 170 392 164 415.2 165.3C438.3 166.7 461.7 175.3 484.8 176.2C508 177 531 170 554 169.3C577 168.7 600 174.3 623 176.3C646 178.3 669 176.7 692.2 175.3C715.3 174 738.7 173 761.8 171.3C785 169.7 808 167.3 831 168.5C854 169.7 877 174.3 888.5 176.7L900 179L900 201L888.5 201C877 201 854 201 831 201C808 201 785 201 761.8 201C738.7 201 715.3 201 692.2 201C669 201 646 201 623 201C600 201 577 201 554 201C531 201 508 201 484.8 201C461.7 201 438.3 201 415.2 201C392 201 369 201 346 201C323 201 300 201 277 201C254 201 231 201 207.8 201C184.7 201 161.3 201 138.2 201C115 201 92 201 69 201C46 201 23 201 11.5 201L0 201Z"
        fill="#5a72a0"
    /></svg>
